<?xml version="1.0" encoding="utf-8"?>
<!-- Generator: Adobe Illustrator 15.0.2, SVG Export Plug-In  -->
<!--  Created by User:Zirguezi(http://commons.wikimedia.org/wiki/User:Zirguezi) for use on Wikimedia projects. This file is made available under the Creative Commons CC0 1.0 Universal Public Domain Dedication. Original can be found at http://commons.wikimedia.org/wiki/Leitner system alternative.svg  -->
<!DOCTYPE svg PUBLIC "-//W3C//DTD SVG 1.0//EN" "http://www.w3.org/TR/2001/REC-SVG-20010904/DTD/svg10.dtd" [
<!ENTITY ns_flows "http://ns.adobe.com/Flows/1.0/">
]>
<svg xmlns="http://www.w3.org/2000/svg" xmlns:xlink="http://www.w3.org/1999/xlink" xmlns:a="http://ns.adobe.com/AdobeSVGViewerExtensions/3.0/" version="1.0" x="0px" y="0px" width="460px" height="250px" viewBox="-17.16 -35.952 460 250" enable-background="new -17.16 -35.952 460 250" xml:space="preserve">
<defs>
</defs>
<g>
	<g>
		<g>
			<path fill="#006838" d="M32.363,63.602c0.639-4.496,2.271-8.827,4.646-12.64c2.373-3.822,5.463-7.137,8.976-9.841     c7.044-5.42,15.733-8.385,24.47-8.844c8.727-0.481,17.655,1.487,25.292,5.962c0.953,0.559,1.885,1.156,2.792,1.791l0.846,0.607     l0.344,0.258c0.458,0.345,0.909,0.701,1.351,1.066c0.886,0.731,1.741,1.502,2.561,2.311c0.82-2.28,1.487-4.655,1.997-7.102     c2.699,4.403,4.549,9.128,5.376,13.813c0.839,4.68,0.637,9.287-0.47,13.326c-2.131-3.617-4.943-6.43-7.982-8.421     c-3.042-2-6.318-3.199-9.515-3.77c1.937-1.243,3.985-2.358,6.134-3.328c-0.684-0.674-1.399-1.319-2.142-1.933     c-0.371-0.307-0.75-0.606-1.136-0.896l-0.29-0.217l-0.714-0.512c-0.766-0.536-1.555-1.041-2.363-1.515     c-6.478-3.8-14.17-5.521-21.74-5.101c-7.558,0.393-15.012,2.97-20.938,7.535c-5.926,4.52-10.21,11.129-11.209,18.351     L32.363,63.602z"/>
		</g>
	</g>
</g>
<g>
	<g>
		<g>
			<path fill="#006838" d="M116.637,63.603c0.638-4.496,2.271-8.827,4.646-12.64c2.372-3.822,5.463-7.137,8.976-9.841     c7.043-5.42,15.733-8.385,24.47-8.844c8.727-0.481,17.655,1.487,25.291,5.962c0.953,0.559,1.885,1.156,2.792,1.791l0.847,0.607     l0.344,0.258c0.458,0.345,0.909,0.7,1.352,1.066c0.886,0.731,1.741,1.501,2.561,2.311c0.82-2.28,1.486-4.655,1.997-7.101     c2.699,4.402,4.549,9.127,5.376,13.813c0.839,4.68,0.637,9.287-0.469,13.326c-2.131-3.617-4.944-6.43-7.983-8.421     c-3.042-2-6.317-3.199-9.515-3.77c1.938-1.242,3.985-2.358,6.134-3.328c-0.683-0.674-1.398-1.319-2.142-1.933     c-0.371-0.307-0.75-0.606-1.136-0.896l-0.29-0.217l-0.714-0.512c-0.766-0.536-1.555-1.041-2.363-1.515     c-6.479-3.8-14.171-5.521-21.74-5.101c-7.558,0.393-15.012,2.97-20.939,7.535c-5.926,4.52-10.21,11.129-11.209,18.35     L116.637,63.603z"/>
		</g>
	</g>
</g>
<g>
	<g>
		<g>
			<path fill="#006838" d="M205.357,63.602c0.639-4.496,2.271-8.827,4.646-12.64c2.373-3.822,5.463-7.137,8.976-9.841     c7.044-5.42,15.733-8.385,24.47-8.844c8.727-0.481,17.655,1.487,25.292,5.962c0.953,0.559,1.885,1.156,2.792,1.791l0.847,0.607     l0.344,0.258c0.458,0.345,0.909,0.7,1.352,1.066c0.886,0.731,1.741,1.501,2.561,2.311c0.82-2.28,1.487-4.655,1.997-7.101     c2.699,4.402,4.55,9.127,5.376,13.813c0.84,4.68,0.637,9.287-0.469,13.326c-2.132-3.617-4.944-6.43-7.983-8.421     c-3.042-2-6.317-3.199-9.515-3.77c1.937-1.242,3.984-2.358,6.134-3.328c-0.684-0.674-1.398-1.319-2.142-1.933     c-0.371-0.307-0.75-0.606-1.136-0.896l-0.29-0.217l-0.714-0.512c-0.766-0.536-1.555-1.041-2.363-1.515     c-6.478-3.8-14.171-5.521-21.74-5.101c-7.558,0.393-15.012,2.97-20.938,7.535c-5.927,4.52-10.21,11.129-11.209,18.351     L205.357,63.602z"/>
		</g>
	</g>
</g>
<g>
	<g>
		<g>
			<path fill="#006838" d="M289.631,63.603c0.639-4.496,2.271-8.827,4.646-12.64c2.372-3.822,5.463-7.137,8.976-9.841     c7.044-5.42,15.733-8.385,24.47-8.844c8.727-0.481,17.655,1.487,25.292,5.962c0.953,0.559,1.885,1.156,2.792,1.791l0.847,0.607     l0.344,0.258c0.458,0.345,0.909,0.7,1.352,1.066c0.886,0.731,1.741,1.501,2.561,2.311c0.82-2.28,1.487-4.655,1.997-7.101     c2.699,4.402,4.55,9.127,5.376,13.813c0.84,4.68,0.637,9.287-0.469,13.326c-2.132-3.617-4.944-6.43-7.983-8.421     c-3.042-2-6.317-3.199-9.515-3.77c1.937-1.242,3.984-2.358,6.134-3.328c-0.684-0.674-1.398-1.319-2.142-1.933     c-0.371-0.307-0.75-0.606-1.136-0.896l-0.29-0.217l-0.714-0.512c-0.766-0.536-1.555-1.041-2.363-1.515     c-6.478-3.8-14.17-5.521-21.74-5.101c-7.558,0.393-15.012,2.97-20.938,7.535c-5.926,4.52-10.21,11.129-11.209,18.35     L289.631,63.603z"/>
		</g>
	</g>
</g>
<line fill="none" stroke="#000000" stroke-miterlimit="10" x1="11.5" y1="63.881" x2="11.5" y2="77.381"/>
<rect x="0.5" y="77.381" fill="none" stroke="#000000" stroke-miterlimit="10" width="52" height="29"/>
<line fill="none" stroke="#000000" stroke-miterlimit="10" x1="0.5" y1="77.381" x2="11.5" y2="63.881"/>
<line fill="none" stroke="#000000" stroke-miterlimit="10" x1="52.5" y1="77.381" x2="63.5" y2="63.881"/>
<line fill="none" stroke="#000000" stroke-miterlimit="10" x1="52.5" y1="106.382" x2="63.5" y2="92.882"/>
<line fill="none" stroke="#000000" stroke-miterlimit="10" x1="11.5" y1="63.881" x2="63.5" y2="63.881"/>
<line fill="none" stroke="#000000" stroke-miterlimit="10" x1="63.5" y1="63.881" x2="63.5" y2="92.882"/>
<line fill="none" stroke="#000000" stroke-miterlimit="10" x1="94.5" y1="63.881" x2="94.5" y2="77.381"/>
<rect x="83.5" y="77.381" fill="none" stroke="#000000" stroke-miterlimit="10" width="52" height="29.001"/>
<line fill="none" stroke="#000000" stroke-miterlimit="10" x1="83.5" y1="77.381" x2="94.5" y2="63.881"/>
<line fill="none" stroke="#000000" stroke-miterlimit="10" x1="135.5" y1="77.381" x2="146.5" y2="63.881"/>
<line fill="none" stroke="#000000" stroke-miterlimit="10" x1="135.5" y1="106.382" x2="146.5" y2="92.882"/>
<line fill="none" stroke="#000000" stroke-miterlimit="10" x1="94.5" y1="63.881" x2="146.5" y2="63.881"/>
<line fill="none" stroke="#000000" stroke-miterlimit="10" x1="146.5" y1="63.881" x2="146.5" y2="92.882"/>
<line fill="none" stroke="#000000" stroke-miterlimit="10" x1="182.5" y1="63.881" x2="182.5" y2="77.381"/>
<rect x="171.5" y="77.381" fill="none" stroke="#000000" stroke-miterlimit="10" width="52" height="29.001"/>
<line fill="none" stroke="#000000" stroke-miterlimit="10" x1="171.5" y1="77.381" x2="182.5" y2="63.881"/>
<line fill="none" stroke="#000000" stroke-miterlimit="10" x1="223.5" y1="77.381" x2="234.5" y2="63.881"/>
<line fill="none" stroke="#000000" stroke-miterlimit="10" x1="223.5" y1="106.382" x2="234.5" y2="92.882"/>
<line fill="none" stroke="#000000" stroke-miterlimit="10" x1="182.5" y1="63.881" x2="234.5" y2="63.881"/>
<line fill="none" stroke="#000000" stroke-miterlimit="10" x1="234.5" y1="63.881" x2="234.5" y2="92.882"/>
<line fill="none" stroke="#000000" stroke-miterlimit="10" x1="275.5" y1="62.881" x2="275.5" y2="76.381"/>
<rect x="264.5" y="76.381" fill="none" stroke="#000000" stroke-miterlimit="10" width="52" height="29"/>
<line fill="none" stroke="#000000" stroke-miterlimit="10" x1="264.5" y1="76.381" x2="275.5" y2="62.881"/>
<line fill="none" stroke="#000000" stroke-miterlimit="10" x1="316.5" y1="76.381" x2="327.5" y2="62.881"/>
<line fill="none" stroke="#000000" stroke-miterlimit="10" x1="316.5" y1="105.382" x2="327.5" y2="91.882"/>
<line fill="none" stroke="#000000" stroke-miterlimit="10" x1="275.5" y1="62.881" x2="327.5" y2="62.881"/>
<line fill="none" stroke="#000000" stroke-miterlimit="10" x1="327.5" y1="62.881" x2="327.5" y2="91.882"/>
<line fill="none" stroke="#000000" stroke-miterlimit="10" x1="361.5" y1="63.881" x2="361.5" y2="77.381"/>
<rect x="350.5" y="77.381" fill="none" stroke="#000000" stroke-miterlimit="10" width="52" height="29"/>
<line fill="none" stroke="#000000" stroke-miterlimit="10" x1="350.5" y1="77.381" x2="361.5" y2="63.881"/>
<line fill="none" stroke="#000000" stroke-miterlimit="10" x1="402.5" y1="77.381" x2="413.5" y2="63.881"/>
<line fill="none" stroke="#000000" stroke-miterlimit="10" x1="402.5" y1="106.382" x2="413.5" y2="92.882"/>
<line fill="none" stroke="#000000" stroke-miterlimit="10" x1="361.5" y1="63.881" x2="413.5" y2="63.881"/>
<line fill="none" stroke="#000000" stroke-miterlimit="10" x1="413.5" y1="63.881" x2="413.5" y2="92.882"/>
<rect x="19.5" y="83.131" fill="none" width="14" height="19.5"/>
<switch><text transform="matrix(1 0 0 1 19.5 100.1709)" font-family="'MyriadPro-Regular'" font-size="24" id="trsvg8"><tspan id="trsvg1">1</tspan></text></switch>
<rect x="103.542" y="83.131" fill="none" width="14" height="19.5"/>
<switch><text transform="matrix(1 0 0 1 103.5425 100.1709)" font-family="'MyriadPro-Regular'" font-size="24" id="trsvg9"><tspan id="trsvg2">2</tspan></text></switch>
<rect x="190.5" y="82.131" fill="none" width="14" height="19.5"/>
<switch><text transform="matrix(1 0 0 1 190.5 99.1709)" font-family="'MyriadPro-Regular'" font-size="24" id="trsvg10"><tspan id="trsvg3">3</tspan></text></switch>
<rect x="285.773" y="82.131" fill="none" width="14" height="19.5"/>
<switch><text transform="matrix(1 0 0 1 285.7734 99.1709)" font-family="'MyriadPro-Regular'" font-size="24" id="trsvg11"><tspan id="trsvg4">4</tspan></text></switch>
<rect x="368.66" y="83.132" fill="none" width="14" height="19.5"/>
<switch><text transform="matrix(1 0 0 1 368.6602 100.1719)" font-family="'MyriadPro-Regular'" font-size="24" id="trsvg12"><tspan id="trsvg5">5</tspan></text></switch>
<rect x="73.023" y="3.048" fill="none" width="270" height="20.5"/>
<switch><text transform="matrix(1 0 0 1 73.0234 20.0879)" fill="#006838" font-family="'MyriadPro-Bold'" font-size="24" id="trsvg13-fr" systemLanguage="fr"><tspan id="trsvg6-fr">cartes correctement répondues</tspan></text><text transform="matrix(1 0 0 1 73.0234 20.0879)" fill="#006838" font-family="'MyriadPro-Bold'" font-size="24" id="trsvg13"><tspan id="trsvg6">Correctly answered cards</tspan></text></switch>
<rect x="59.816" y="151.048" fill="none" width="290.16" height="20.5"/>
<switch><text transform="matrix(1 0 0 1 59.8164 168.0879)" fill="#BE1E2D" font-family="'MyriadPro-Bold'" font-size="24" id="trsvg14-fr" systemLanguage="fr"><tspan id="trsvg7-fr">cartes mal répondues</tspan></text><text transform="matrix(1 0 0 1 59.8164 168.0879)" fill="#BE1E2D" font-family="'MyriadPro-Bold'" font-size="24" id="trsvg14"><tspan id="trsvg7">Incorrectly answered cards</tspan></text></switch>
<polyline fill="none" stroke="#BE1E2D" stroke-width="5" stroke-miterlimit="10" points="23.34,137.548 376.5,137.548   376.5,106.382 "/>
<line fill="none" stroke="#BE1E2D" stroke-width="5" stroke-miterlimit="10" x1="290.5" y1="105.382" x2="290.5" y2="137.548"/>
<line fill="none" stroke="#BE1E2D" stroke-width="5" stroke-miterlimit="10" x1="194.816" y1="106.382" x2="194.816" y2="137.548"/>
<line fill="none" stroke="#BE1E2D" stroke-width="5" stroke-miterlimit="10" x1="107.34" y1="106.382" x2="107.34" y2="137.548"/>
<g>
	<g>
		<g>
			<polygon fill="#BE1E2D" points="23.325,137.548 23.325,132.085 23.325,126.737 16.728,129.538 26.499,106.382 36.272,129.538      29.674,126.737 29.674,132.085 29.674,137.548    "/>
		</g>
	</g>
</g>
</svg>
