<?xml version="1.0" encoding="UTF-8" standalone="no"?>
<svg
   xmlns:dc="http://purl.org/dc/elements/1.1/"
   xmlns:cc="http://creativecommons.org/ns#"
   xmlns:rdf="http://www.w3.org/1999/02/22-rdf-syntax-ns#"
   xmlns:svg="http://www.w3.org/2000/svg"
   xmlns="http://www.w3.org/2000/svg"
   height="110"
   width="110"
   version="1.1"
   viewBox="0 0 110.00001 110"
   data-name="Calque 1"
   id="Calque_1">
  <metadata
     id="metadata3785">
    <rdf:RDF>
      <cc:Work
         rdf:about="">
        <dc:format>image/svg+xml</dc:format>
        <dc:type
           rdf:resource="http://purl.org/dc/dcmitype/StillImage" />
        <dc:title>Plan de travail 1</dc:title>
      </cc:Work>
    </rdf:RDF>
  </metadata>
  <defs
     id="defs3764">
    <style
       id="style3762">.cls-1{fill:#313535;}</style>
  </defs>
  <title
     id="title3766">Plan de travail 1</title>
  <path
     style="fill:#313535"
     id="path3768"
     d="m 106.98824,12.569104 v 0 C 87.076109,2.3019151 71.449049,13.544912 58.091802,29.193186 54.895679,28.599216 47.265998,27.107221 45.49116,26.237479 l -14.389624,16.510944 5.755849,2.418305 c 3.316331,-4.589123 10.705597,-9.00854 14.905811,-8.103444 -3.054701,4.016367 -6.052833,8.174155 -8.923688,12.162237 l 9.022684,10.507607 0.169705,0.169705 8.994399,10.507607 c 4.362848,-2.227386 8.888332,-4.532554 13.336034,-6.957931 0.148492,4.320423 -5.275018,10.861161 -10.245978,13.456242 L 65.615419,82.919159 84.09919,71.209471 C 83.512291,69.34978 83.208235,61.691813 83.095097,58.410838 100.60307,47.577962 114.10881,33.831806 106.98824,12.569104 Z M 96.515985,32.940852 a 8.67,8.67 0 1 1 0.92631,-12.240019 8.67,8.67 0 0 1 -0.89803,12.268303 z"
     class="cls-1" />
  <path
     style="fill:#313535"
     id="path3770"
     d="M 54.018867,66.995114 C 53.919867,65.679896 48.8782,65.361698 47.7539,63.360585 45.96492,61.967585 46.41747,56.947127 45.130535,56.636 42.903148,56.10567 39.622173,58.198706 31.72379,65.290987 23.825407,72.383268 1.311127,96.976434 1,103.48183 7.4770985,104.16065 35.216898,85.627378 43.412266,78.902793 51.607632,72.178207 54.202714,69.271998 54.018867,66.995114 Z"
     class="cls-1" />
</svg>
