<svg xmlns="http://www.w3.org/2000/svg" width="110" height="110" viewBox="0 0 110.00001 110"><defs id="defs3764"><style id="style3762">.cls-1{fill:#313535;}</style></defs><title id="title3766">Plan de travail 1</title><path id="path3768" fill="#313535" d="M107 12.57C87.07 2.3 71.44 13.54 58.1 29.2c-3.2-.6-10.83-2.1-12.6-2.96l-14.4 16.5 5.76 2.43c3.3-4.6 10.7-9 14.9-8.1-3.05 4-6.05 8.17-8.92 12.16l9.02 10.5.17.17 9 10.5c4.36-2.22 8.88-4.52 13.33-6.95.15 4.32-5.27 10.86-10.24 13.46l1.5 6.02 18.48-11.7c-.6-1.87-.9-9.53-1-12.8 17.5-10.84 31-24.6 23.9-45.85zM96.5 32.94a8.67 8.67 0 1 1 .92-12.24 8.67 8.67 0 0 1-.9 12.27z" class="cls-1"/><path id="path3770" fill="#313535" d="M54.02 67c-.1-1.32-5.14-1.64-6.27-3.64-1.8-1.4-1.33-6.4-2.62-6.72-2.23-.53-5.5 1.56-13.4 8.65C23.82 72.37 1.3 96.97 1 103.47c6.48.68 34.22-17.85 42.4-24.58 8.2-6.72 10.8-9.63 10.62-11.9z" class="cls-1"/></svg>
