<svg xmlns="http://www.w3.org/2000/svg" width="511.626" height="511.626"><path d="M49.1 178.73c6.48 4.57 26 18.13 58.53 40.68 32.55 22.57 57.5 39.93 74.8 52.1 1.9 1.35 5.95 4.25 12.14 8.72 6.18 4.48 11.32 8.1 15.4 10.85 4.1 2.76 9.06 5.86 14.86 9.28 5.8 3.42 11.28 6 16.42 7.7 5.14 1.72 9.9 2.57 14.28 2.57H256.1c4.38 0 9.14-.85 14.28-2.57 5.13-1.7 10.6-4.28 16.4-7.7 5.82-3.43 10.77-6.52 14.86-9.28 4.1-2.75 9.23-6.37 15.42-10.85 6.18-4.47 10.23-7.37 12.13-8.7 17.5-12.2 62.04-43.12 133.6-92.8 13.9-9.7 25.5-21.4 34.83-35.1 9.33-13.7 14-28.08 14-43.12 0-12.56-4.53-23.32-13.57-32.26-9.04-8.95-19.75-13.42-32.12-13.42H45.68c-14.66 0-25.93 4.95-33.83 14.84C3.95 79.56 0 91.93 0 106.78c0 12 5.24 24.98 15.7 38.97 10.47 14 21.6 25 33.4 32.98zM483.07 209.28c-62.42 42.25-109.82 75.08-142.17 98.5-10.85 8-19.65 14.23-26.4 18.7-6.77 4.47-15.76 9.04-27 13.7-11.22 4.67-21.7 7-31.4 7H255.53c-9.7 0-20.18-2.33-31.4-7-11.24-4.66-20.23-9.23-27-13.7-6.74-4.47-15.55-10.7-26.4-18.7-25.7-18.85-73-51.68-141.9-98.5C18 202.05 8.4 193.75 0 184.44v226.68c0 12.57 4.47 23.32 13.42 32.27 8.94 8.94 19.7 13.4 32.26 13.4h420.27c12.56 0 23.3-4.46 32.26-13.4 8.96-8.96 13.43-19.7 13.43-32.28V184.44c-8.2 9.13-17.7 17.4-28.56 24.84z"/></svg>