<svg fill="white" xmlns="http://www.w3.org/2000/svg" width="430.117" height="430.117"><path d="M430.12 261.54v159.02h-92.2V272.2c0-37.28-13.32-62.7-46.7-62.7-25.47 0-40.63 17.13-47.3 33.7-2.43 5.94-3.05 14.2-3.05 22.5v154.86h-92.22s1.24-251.28 0-277.32h92.2v39.3c-.18.3-.42.62-.6.9h.6v-.9c12.26-18.86 34.14-45.8 83.1-45.8 60.68-.02 106.17 39.62 106.17 124.8zM52.18 9.56C20.64 9.56 0 30.26 0 57.46c0 26.62 20.04 47.94 50.96 47.94h.62c32.15 0 52.15-21.3 52.15-47.94-.6-27.2-20-47.9-51.55-47.9zm-46.7 411h92.18V143.24H5.48v277.32z"/></svg>
