<svg fill="white" xmlns="http://www.w3.org/2000/svg" width="430.117" height="430.118"><path d="M97.5 332.47c10.4 10.4 16.75 24.53 16.8 40.25-.05 15.68-6.4 29.8-16.77 40.17h-.04c-10.4 10.36-24.6 16.7-40.4 16.7-15.78 0-29.95-6.36-40.35-16.7C6.38 402.52 0 388.4 0 372.7c0-15.72 6.38-29.87 16.75-40.26 10.4-10.35 24.57-16.72 40.34-16.72 15.8 0 29.98 6.4 40.4 16.73zm0 0zM16.74 412.9zM.05 146.27v82.13c53.6.02 104.32 21.08 142.27 59.1 37.95 37.88 58.92 88.67 59 142.47h.04v.15h82.46c-.06-78.24-31.86-149.1-83.28-200.55C149.12 178.13 78.3 146.3.04 146.27zM.2 0v82.1c191.66.13 347.46 156.17 347.6 348.02h82.32c-.06-118.57-48.25-226-126.13-303.94C226.06 48.28 118.7.06.2 0z"/></svg>
