<svg viewBox="0 0 307 267" xmlns="http://www.w3.org/2000/svg" xmlns:xlink="http://www.w3.org/1999/xlink">
    <g id="favicon" fill="none" fill-rule="evenodd">
            <polygon id="Combined-Shape-path" stroke-width="12px" fill="#FAD73B" stroke="#fff" points="270.1066 3.36041667 300.951705 36.9604167 265.938231 259.556249 188.407805 259.556249 162.56433 230.995833 159.229221 260.395834 82.5320553 260.395834 51.6869505 226.795833 50.02043 226.795833 -3.55271368e-15 0.839583337 64.1920581 0.839583337 65.0253183 4.20000001 92.5353143 34.4395834 97.5369438 0.839583337 175.900629 0.839583337 176.73389 4.20000001 204.243886 34.4395834 210.078776 -3.55271368e-14 270.102465 -3.55271368e-14 270.102465 3.36041667"></polygon>
            <polygon id="Combined-Shape-path" fill="#fff" stroke="#fff" points="263.436382 7.56041669 215.084541 7.56041669 196.744543 117.597916 195.078023 117.597916 170.067808 7.56041669 102.540641 7.56041669 88.3690128 113.397917 86.7024921 113.397917 59.1924963 7.56041669 8.33880597 7.56041669 55.8573873 220.916666 123.384554 220.916666 137.556183 107.51875 138.389443 107.51875 161.731069 220.916666 230.091497 220.916666"></polygon>
    </g>
</svg>
