<svg xmlns="http://www.w3.org/2000/svg" width="391" height="124"><title>Algolia_logo_bg-white</title><desc>Created with Sketch.</desc><g fill="none"><g><path fill="#46AEDA" d="M235.6 47.02l-5.7 20.18 18.35-10.05c-2.66-4.9-7.2-8.58-12.65-10.13z"/><path fill="#46AEDA" d="M203.46 33.4c-2.46-2.46-6.44-2.46-8.9 0l-1.1 1.12c-2.45 2.46-2.45 6.46 0 8.92l1.18 1.2c2.52-4.07 5.72-7.65 9.45-10.6l-.64-.64z"/><path fill="#46AEDA" d="M241.84 27.22c0-.13.04-.26.04-.4v-3.16c0-3.48-2.8-6.3-6.28-6.3h-11c-3.47 0-6.28 2.82-6.28 6.3v3.1c3.5-.98 7.18-1.52 11-1.52 4.36 0 8.57.7 12.52 1.98"/><path fill="#46AEDA" d="M229.76 41.55c13.8 0 25 11.22 25 25 0 13.8-11.2 25-25 25-13.78 0-25-11.2-25-25 0-13.78 11.22-25 25-25m-35 25c0 19.33 15.67 35 35 35s35-15.67 35-35-15.67-35-35-35-35 15.67-35 35z"/><path fill="#0C1724" d="M69.58 99.66c-1.44-3.84-2.8-7.6-4.07-11.3-1.26-3.72-2.58-7.5-3.93-11.32H21.62L13.6 99.66H.76c3.4-9.37 6.57-18.04 9.54-26 2.97-7.97 5.87-15.54 8.7-22.7 2.85-7.15 5.67-13.98 8.47-20.5 2.8-6.52 5.73-12.97 8.78-19.36h11.32c3.06 6.4 5.98 12.84 8.78 19.36 2.8 6.52 5.62 13.35 8.46 20.5 2.85 7.16 5.76 14.73 8.73 22.7 2.97 7.96 6.15 16.63 9.54 26h-13.5zM58 66.8c-2.7-7.4-5.4-14.57-8.07-21.52-2.68-6.94-5.45-13.6-8.34-20-2.98 6.4-5.8 13.06-8.47 20-2.67 6.95-5.32 14.12-7.95 21.53H58z"/><path fill="#0C1724" d="M114.1 100.93c-7.28-.17-12.46-1.74-15.5-4.73-3.07-2.98-4.6-7.62-4.6-13.92V2.54L105.85.5v79.86c0 1.96.17 3.58.5 4.86.35 1.27.9 2.3 1.66 3.06.77.77 1.8 1.34 3.06 1.73 1.27.4 2.84.7 4.7.97l-1.65 9.96"/><path fill="#0C1724" d="M170.47 93c-1.02.7-3 1.57-5.92 2.63-2.92 1.07-6.34 1.6-10.24 1.6-3.97 0-7.73-.64-11.25-1.92-3.52-1.27-6.6-3.25-9.22-5.93-2.63-2.7-4.7-6.03-6.24-10.03-1.53-4-2.3-8.78-2.3-14.3 0-4.87.72-9.32 2.17-13.37 1.44-4.04 3.54-7.54 6.3-10.48 2.75-2.95 6.12-5.25 10.1-6.9 4-1.67 8.5-2.5 13.5-2.5 5.5 0 10.32.4 14.44 1.2 4.12.82 7.57 1.57 10.37 2.25v59.3c0 10.22-2.62 17.63-7.88 22.23-5.27 4.6-13.25 6.9-23.93 6.9-4.16 0-8.08-.34-11.77-1.02-3.7-.7-6.9-1.5-9.6-2.43l2.16-10.35c2.37.93 5.28 1.77 8.7 2.5 3.45.7 7.03 1.08 10.76 1.08 7.04 0 12.1-1.4 15.2-4.22 3.1-2.8 4.65-7.28 4.65-13.42v-2.8zm-4.9-50.27c-2-.3-4.7-.45-8.08-.45-6.37 0-11.27 2.1-14.7 6.26-3.44 4.18-5.15 9.7-5.15 16.6 0 3.85.48 7.13 1.46 9.85.98 2.72 2.3 4.98 3.95 6.77 1.66 1.78 3.57 3.1 5.73 3.96 2.16.85 4.4 1.27 6.68 1.27 3.13 0 6.02-.44 8.65-1.34 2.64-.9 4.72-1.93 6.24-3.13V43.68c-1.2-.34-2.78-.65-4.77-.95z"/><path fill="#0C1724" d="M297.04 100.93c-7.3-.17-12.47-1.74-15.53-4.72-3.04-2.97-4.57-7.62-4.57-13.92V2.54L288.77.5v79.86c0 1.96.17 3.58.5 4.86.34 1.27.9 2.3 1.66 3.06.76.77 1.78 1.35 3.05 1.73 1.27.4 2.84.7 4.7.97l-1.64 9.96"/><path fill="#0C1724" d="M317.77 21.2c-2.12 0-3.92-.7-5.4-2.1-1.5-1.42-2.23-3.3-2.23-5.7 0-2.4.74-4.28 2.23-5.7 1.48-1.4 3.28-2.1 5.4-2.1 2.12 0 3.92.7 5.4 2.1 1.5 1.42 2.24 3.3 2.24 5.7 0 2.4-.74 4.28-2.22 5.7-1.5 1.4-3.3 2.1-5.4 2.1zm-5.85 12h11.83v66.46h-11.83V33.2z"/><path fill="#0C1724" d="M365.48 31.54c4.75 0 8.76.62 12.02 1.86 3.27 1.23 5.9 2.98 7.9 5.24 1.98 2.26 3.4 4.94 4.25 8.05.85 3.1 1.27 6.53 1.27 10.27V98.5c-1 .18-2.44.4-4.26.7-1.82.3-3.88.58-6.17.84-2.3.26-4.78.5-7.45.7-2.67.2-5.32.32-7.95.32-3.74 0-7.17-.38-10.3-1.15-3.15-.75-5.86-1.97-8.15-3.63-2.3-1.66-4.07-3.85-5.34-6.58-1.27-2.74-1.9-6.02-1.9-9.85 0-3.66.74-6.82 2.23-9.46 1.48-2.65 3.5-4.78 6.04-6.4 2.54-1.6 5.5-2.8 8.9-3.57 3.4-.77 6.96-1.15 10.7-1.15 1.18 0 2.4.06 3.68.2 1.27.1 2.48.3 3.62.5 1.15.2 2.15.4 3 .57.84.18 1.44.3 1.78.4V57.6c0-1.95-.22-3.88-.64-5.8-.42-1.92-1.18-3.62-2.28-5.1-1.1-1.5-2.6-2.7-4.52-3.6-1.9-.88-4.4-1.33-7.44-1.33-3.9 0-7.3.28-10.24.83-2.93.55-5.1 1.13-6.55 1.72l-1.4-9.84c1.53-.68 4.07-1.34 7.63-1.98 3.56-.64 7.42-.96 11.58-.96zm1.02 59.55c2.8 0 5.28-.07 7.44-.2s3.96-.36 5.4-.7V70.4c-.84-.43-2.22-.8-4.13-1.1-1.9-.3-4.2-.44-6.92-.44-1.78 0-3.67.13-5.66.38-2 .26-3.82.8-5.47 1.6-1.66.8-3.04 1.92-4.14 3.32-1.1 1.4-1.64 3.26-1.64 5.56 0 4.26 1.35 7.22 4.07 8.88 2.7 1.66 6.4 2.5 11.07 2.5z"/></g></g></svg>