<svg id="Calque_1" data-name="Calque 1" xmlns="http://www.w3.org/2000/svg" viewBox="0 0 386.77 139.24"><defs><style>.cls-1{fill:#313535;}</style></defs><title>Plan de travail 1</title><path class="cls-1" d="M33.82,0h0C12.48,6.82,9.38,25.82,11,46.33c-2.68,1.84-9.13,6.18-11,6.82L1.5,75l5.78-2.36c-.9-5.59,1.2-13.94,4.81-16.27.68,5,1.5,10.06,2.29,14.91l13.81,1.05.24,0L42.22,73.4c1.51-4.66,3.08-9.49,4.51-14.35C49.89,62,50.68,70.46,49,75.81L54.31,79,59.1,57.65c-1.73-.9-7.36-6.1-9.76-8.34C54.06,29.27,53.89,10,33.82,0Zm7,21.81a8.67,8.67,0,1,1-8-9.31A8.67,8.67,0,0,1,40.86,21.81Z"/><path class="cls-1" d="M34.85,75.94c-1-.86-4.79,2.48-7,1.86-2.25.28-5.48-3.59-6.61-2.9-1.95,1.2-2.79,5-3.36,15.6s.9,43.91,5.28,48.73c5.06-4.1,11.57-36.82,12.61-47.37S36.59,77.42,34.85,75.94Z"/><path class="cls-1" d="M243.82,57.2a1.28,1.28,0,0,0-.34,0c-1,0-1.71,1.26-2.13,2.24a30,30,0,0,1-3.79,7.31c-1.43,2-2.8,3.08-4.06,3.29a2.39,2.39,0,0,1-.39,0c-.33,0-1,0-1.1-1.52a24.24,24.24,0,0,1,.64-5.84c.51-2.43,1.14-5.08,1.87-7.88a60.23,60.23,0,0,0,1.56-7.92,13.73,13.73,0,0,0-.38-6.05c-.61-1.73-2.13-2.46-4.4-2.07a7.65,7.65,0,0,0-3.9,2.19,26.71,26.71,0,0,0-3.74,4.63,55,55,0,0,0-3.52,6.29q-.67,1.4-1.32,2.85l1.84-11.23a1.66,1.66,0,0,0-1.13-2,5.4,5.4,0,0,0-2.49-.35,6,6,0,0,0-2.58.82A2.9,2.9,0,0,0,213,44.17l-1.54,9.92q-.55,3.54-1.21,7.44c-.19,1.15-.38,2.25-.57,3.34a43.4,43.4,0,0,1-3.47,5.94,11.31,11.31,0,0,1-5.2,3.89,8.47,8.47,0,0,1-5.6.14,7.75,7.75,0,0,1-4.16-3.34c5.35-4.44,9.19-8.55,11.4-12.22s3.4-7,3.3-9.48a5.66,5.66,0,0,0-3.33-5.37c-2-.92-4.56-.74-7.49.56a16.77,16.77,0,0,0-5.28,3.92,29,29,0,0,0-4.16,5.86q-.47.86-.88,1.76c-.13.07-.26.15-.4.22A11.88,11.88,0,0,1,181,57.89l0-.5c.13-1,.24-2.13.31-3.31a14.51,14.51,0,0,0-.14-3.26,5.25,5.25,0,0,0-1-2.46,2.29,2.29,0,0,0-2.29-.81,4,4,0,0,0-2.76,2.17A9.58,9.58,0,0,0,174,53.63a11.71,11.71,0,0,0,.41,4.21,4.66,4.66,0,0,0,2.11,2.88c-.33,1.91-.75,3.89-1.27,5.89a56.91,56.91,0,0,1-1.8,5.83,17.72,17.72,0,0,1-2.23,4.28,4.07,4.07,0,0,1-2.42,1.81,1.69,1.69,0,0,1-1.89-.94,9.34,9.34,0,0,1-1.1-3.67,33.39,33.39,0,0,1-.14-5.52,59.79,59.79,0,0,1,.64-6.32c.33-2.1.73-4.13,1.2-6a35.19,35.19,0,0,1,1.5-4.77,1.28,1.28,0,0,0,.06-1.08,1.2,1.2,0,0,0-.79-.63,4.37,4.37,0,0,0-2-.07,8.12,8.12,0,0,0-2.22.74,3.61,3.61,0,0,0-1.66,1.41,33.05,33.05,0,0,0-2.24,6.46,67.78,67.78,0,0,0-1.44,7.9,67,67,0,0,0-.5,7.49,43.18,43.18,0,0,1-3.51,6,11.33,11.33,0,0,1-5.2,3.89,8.49,8.49,0,0,1-5.6.14,7.77,7.77,0,0,1-4.16-3.34c5.35-4.44,9.19-8.55,11.4-12.22s3.4-7,3.3-9.48a5.67,5.67,0,0,0-3.33-5.37c-2-.92-4.56-.74-7.49.56a16.8,16.8,0,0,0-5.28,3.92,29,29,0,0,0-4.16,5.86,32.16,32.16,0,0,0-2.79,7,31.21,31.21,0,0,0-1.09,7.37c0,.19,0,.37,0,.56a29.86,29.86,0,0,1-3.68,7c-1.43,2-2.8,3.08-4.06,3.29a1.13,1.13,0,0,1-1-.17,1.51,1.51,0,0,1-.37-1,13,13,0,0,1,.13-2.17l.38-2.93c0-.66.24-2.17.6-4.47s.79-5,1.27-8.15,1-6.41,1.48-9.92,1-6.71,1.55-9.86.95-5.72,1.3-7.93.6-3.56.73-4.12a1.92,1.92,0,0,0-.83-2.27,3.5,3.5,0,0,0-2.43-.35,7.37,7.37,0,0,0-2.68,1.07,4.06,4.06,0,0,0-1.83,2.44c-.14.57-.38,1.89-.73,3.9S119.4,47.31,119,50s-.85,5.84-1.33,9.14-1,6.52-1.46,9.67c-.32,2-.61,3.88-.9,5.7a.9.9,0,0,0-.85-.65,1,1,0,0,0-.29,0,3.46,3.46,0,0,0-1.41,1.1,8.3,8.3,0,0,0-1.39,2.31,27.21,27.21,0,0,1-6.73,9.49,13.45,13.45,0,0,1-7.46,3.49,7.74,7.74,0,0,1-4.71-1.08A7.94,7.94,0,0,1,89.55,86a11.63,11.63,0,0,1-1.11-4.65,15.82,15.82,0,0,1,.63-5.11,13.22,13.22,0,0,1,2.38-4.55,10.62,10.62,0,0,1,4-3.08c1.38-.5,1.51-1.16,1.38-1.64a2.72,2.72,0,0,0-1.17-1.42,6.87,6.87,0,0,1-3-5,19,19,0,0,1,.34-7.6,20.53,20.53,0,0,1,3.21-7.16,9.33,9.33,0,0,1,5.53-3.88,4.55,4.55,0,0,1,3.32.21,2.93,2.93,0,0,1,1.36,2,7.66,7.66,0,0,1-.11,3.18,14.84,14.84,0,0,1-1.29,3.55,13,13,0,0,1-2,2.94A3.4,3.4,0,0,1,100.9,55,2,2,0,0,0,99.16,57a4.88,4.88,0,0,0,1,3.06,7.48,7.48,0,0,0,3.2,2.44,7.4,7.4,0,0,0,5.31-.07,8.56,8.56,0,0,0,4.59-3.35,14.49,14.49,0,0,0,2.37-5.42,15.62,15.62,0,0,0,0-6.14A12.62,12.62,0,0,0,113.22,42a10.93,10.93,0,0,0-5.12-3.49,13.84,13.84,0,0,0-7.84,0A19.88,19.88,0,0,0,90,44a18,18,0,0,0-4.55,8.48A15.72,15.72,0,0,0,86,61.3a11.74,11.74,0,0,0,4.08,5.59,14.37,14.37,0,0,0-2.75,1.21,17.78,17.78,0,0,0-4,3.17A19.76,19.76,0,0,0,78.06,82.8,18.16,18.16,0,0,0,78.81,91a16.13,16.13,0,0,0,3.82,6.37,12.71,12.71,0,0,0,6,3.37,10.25,10.25,0,0,0,2.47.3,12.45,12.45,0,0,0,4.83-1,24.77,24.77,0,0,0,5.64-3.48A38.71,38.71,0,0,0,107,91.19a47.69,47.69,0,0,0,4.64-6.6,41.65,41.65,0,0,0,3.15-6.67l-1,6.28c-.23,1.34-.44,2.78-.61,4.27a15,15,0,0,0,.05,4.17,5.86,5.86,0,0,0,1.43,3.11,3.29,3.29,0,0,0,2.51.94,7.09,7.09,0,0,0,1.19-.11,11.37,11.37,0,0,0,4.76-2.25,25.3,25.3,0,0,0,4.54-4.41,38.42,38.42,0,0,0,3.59-5.3l0,.08a12.58,12.58,0,0,0,3.08,4.65,10.5,10.5,0,0,0,4.42,2.46,11.54,11.54,0,0,0,3,.4,12.09,12.09,0,0,0,2-.17,17.1,17.1,0,0,0,6.31-2.37,23.51,23.51,0,0,0,5-4.27,28.12,28.12,0,0,0,3.56-5c.08.43.16.86.26,1.27a11.37,11.37,0,0,0,2.51,5.13,4.73,4.73,0,0,0,3.59,1.56,6.46,6.46,0,0,0,1.09-.1,8.66,8.66,0,0,0,5.21-3.32,30.29,30.29,0,0,0,4-6.65,56.82,56.82,0,0,0,3-8.47c.79-2.88,1.45-5.67,2-8.29a11.32,11.32,0,0,0,2.56-.44l.08,0c-.08.26-.16.51-.23.77a31.27,31.27,0,0,0-1.09,7.37,16.54,16.54,0,0,0,1,6.79,12.56,12.56,0,0,0,3.08,4.65,10.5,10.5,0,0,0,4.42,2.46,11.46,11.46,0,0,0,3,.4,12.27,12.27,0,0,0,2-.17,17.16,17.16,0,0,0,6.31-2.38,23.54,23.54,0,0,0,5-4.27c.41-.46.8-.93,1.18-1.42-.25,1.46-.44,2.47-.56,3-.4,1.53.34,2.15.82,2.38a3.57,3.57,0,0,0,1.58.34,5.39,5.39,0,0,0,.92-.08,7,7,0,0,0,2.68-1.08A4.08,4.08,0,0,0,215,77.34l.36-1.54,0-.1.25-1A77.12,77.12,0,0,1,218,65.6,89.08,89.08,0,0,1,221.29,57a46.9,46.9,0,0,1,3.4-6.43c1.41-2.15,2.1-2.48,2.44-2.53a.2.2,0,0,1,.17.06c.07.07.28.37.24,1.44a36.93,36.93,0,0,1-.75,5.62q-.68,3.45-1.54,7.5a43.8,43.8,0,0,0-1,7.51,13.68,13.68,0,0,0,.79,5.68c.67,1.62,2.15,2.3,4.26,1.95a11.35,11.35,0,0,0,4.76-2.25,25.43,25.43,0,0,0,4.54-4.41,38.43,38.43,0,0,0,3.68-5.47,23.71,23.71,0,0,0,2.27-5.39C245,58.49,244.76,57.46,243.82,57.2ZM138.26,77.08a15.26,15.26,0,0,1-.67-4.8,27.49,27.49,0,0,1,1.16-7.81,10.66,10.66,0,0,1,3.85-5.76,2.61,2.61,0,0,1,1.6-.62,2.55,2.55,0,0,1,1.31.4A4.17,4.17,0,0,1,147.29,62a13.54,13.54,0,0,1-1.75,6.75C144.29,71.31,141.84,74.11,138.26,77.08Zm51.43-8.71a15.25,15.25,0,0,1-.67-4.8A27.53,27.53,0,0,1,190.13,56a8,8,0,0,0,.4-.73,4.28,4.28,0,0,0,.31-1.22,10,10,0,0,1,3.2-4,2.6,2.6,0,0,1,1.6-.62,2.55,2.55,0,0,1,1.31.4,4.17,4.17,0,0,1,1.78,3.49A13.53,13.53,0,0,1,197,60C195.72,62.59,193.27,65.4,189.69,68.36Z"/><path class="cls-1" d="M352.48,61c-.91-.23-1.76.45-2.52,2.07a37.66,37.66,0,0,1-4.88,8.38,18.82,18.82,0,0,0,.14-6,29.34,29.34,0,0,0-2.6-8.77c-.7-1.41-1.44-2.75-2.19-4a22.09,22.09,0,0,1-1.67-3.25,5.82,5.82,0,0,1-.48-2.49,3,3,0,0,1,1.2-2,1.65,1.65,0,0,0,.69-1.2.9.9,0,0,0-.4-.69,3.21,3.21,0,0,0-1.87-.41h0a8.56,8.56,0,0,0-2.62.5,5.78,5.78,0,0,0-2.44,1.54,6.58,6.58,0,0,0-2,3.43,7.69,7.69,0,0,0,.22,3.54l-.07.12A3.25,3.25,0,0,1,329.48,53a8.7,8.7,0,0,1-2.54.7,14.57,14.57,0,0,1-3,.07,20.87,20.87,0,0,1-2.65-.37,17.64,17.64,0,0,0-3.62-8c-.7-.78-1.6-.7-2.4.29a8.65,8.65,0,0,0-1.46,3,15.76,15.76,0,0,0-.6,3.85,5.23,5.23,0,0,0,.8,3.36,14.39,14.39,0,0,1,2.81,5.46,16.76,16.76,0,0,1,.2,7.16,14.37,14.37,0,0,1-1.19,4.08,17.26,17.26,0,0,1-2,3.35,12.48,12.48,0,0,1-2.31,2.32,5,5,0,0,1-2,1c-.43.07-.85.12-1.08-.8a11.21,11.21,0,0,1-.19-3.42,35,35,0,0,1,.61-4.41c.32-1.58.54-2.85.68-3.93,0-.67.21-2,.51-4s.67-4.33,1.06-7,.84-5.43,1.33-8.39.94-5.74,1.35-8.34.77-4.86,1.09-6.79c.39-2.36.59-3.31.68-3.71a1.92,1.92,0,0,0-.83-2.27,3.59,3.59,0,0,0-2.48-.34A7.06,7.06,0,0,0,309.52,27a4.07,4.07,0,0,0-1.77,2.43c-.14.58-.35,1.7-.64,3.42s-.62,3.73-1,6.1-.76,4.92-1.17,7.68-.84,5.47-1.26,8.15-.82,5.22-1.18,7.62-.7,4.4-1,6.09q-.23,1.35-.48,3.23a29.86,29.86,0,0,1-3.68,7c-1.43,2-2.8,3.08-4.06,3.29a1.14,1.14,0,0,1-1-.17,1.52,1.52,0,0,1-.37-1,13,13,0,0,1,.13-2.17l.37-2.88q.2-1.52.67-4.82c.32-2.21.68-4.51,1.08-6.84s.79-4.58,1.17-6.63.68-3.51.92-4.4a1.9,1.9,0,0,0-.9-2.27,3.75,3.75,0,0,0-2.47-.33,7,7,0,0,0-2.63,1.07,4.12,4.12,0,0,0-1.5,1.68,5.31,5.31,0,0,0-4.85-1.46,11.06,11.06,0,0,0-5,2.41,26.66,26.66,0,0,0-4.68,5,40.53,40.53,0,0,0-4,6.81,43.44,43.44,0,0,0-2.85,7.94c-.31,1.22-.54,2.39-.72,3.54a30,30,0,0,1-3.73,7.17c-1.43,2-2.8,3.08-4.06,3.29a1.14,1.14,0,0,1-1-.17,1.51,1.51,0,0,1-.37-1,12.94,12.94,0,0,1,.13-2.17c.11-.9.24-1.86.38-2.93,0-.66.24-2.17.61-4.47s.79-5,1.27-8.16,1-6.41,1.48-9.91,1-6.71,1.55-9.86.95-5.72,1.3-7.93.59-3.55.73-4.12a1.91,1.91,0,0,0-.83-2.27,3.5,3.5,0,0,0-2.43-.35,7.38,7.38,0,0,0-2.68,1.07A4.06,4.06,0,0,0,257.1,38c-.14.57-.38,1.88-.73,3.9s-.74,4.5-1.14,7.22-.85,5.84-1.33,9.14-1,6.52-1.46,9.67-1,6.09-1.39,8.8l-1,6.55c-.23,1.34-.44,2.78-.61,4.27a15.08,15.08,0,0,0,.05,4.17,5.88,5.88,0,0,0,1.43,3.11,3.3,3.3,0,0,0,2.51.93,7.25,7.25,0,0,0,1.19-.11,11.4,11.4,0,0,0,4.76-2.25A25.33,25.33,0,0,0,263.91,89a38.62,38.62,0,0,0,2.6-3.65,13.89,13.89,0,0,0,.57,2.28,8.75,8.75,0,0,0,2.64,4,5,5,0,0,0,3.22,1.1,6.87,6.87,0,0,0,1.16-.1,11.52,11.52,0,0,0,5.45-2.78,27.78,27.78,0,0,0,4.2-4.57,8.18,8.18,0,0,0,1,3.07c.77,1.36,2.23,1.88,4.34,1.53a11.4,11.4,0,0,0,4.76-2.25,25.46,25.46,0,0,0,4.54-4.41A38.28,38.28,0,0,0,300.63,80,13.29,13.29,0,0,0,302,85.06,3.52,3.52,0,0,0,305.35,87a6.23,6.23,0,0,0,1-.09,10.08,10.08,0,0,0,4.55-2.22,24.19,24.19,0,0,0,4.15-4.35,35.94,35.94,0,0,0,3.35-5.42,27.68,27.68,0,0,0,2.08-5.34,37.54,37.54,0,0,0,1.21-6.62,36.19,36.19,0,0,0,.07-5.41,19.23,19.23,0,0,0,7.17-.7,10.27,10.27,0,0,0,3.14-1.51l.29-.24c.11.22.22.45.34.67.73,1.37,1.47,2.91,2.21,4.59a26.81,26.81,0,0,1,1.86,6,22.11,22.11,0,0,1,.37,5.83,9.74,9.74,0,0,1-1.41,4.49,4.57,4.57,0,0,1-3.25,2.15,6.21,6.21,0,0,1-1,.09,3.24,3.24,0,0,1-2.57-1.06,5.12,5.12,0,0,1-1.32-3.48,7,7,0,0,1,1.25-4A5.5,5.5,0,0,1,332.74,68c.63-.11,1-.67,1.16-1.67a6.86,6.86,0,0,0-.19-2.65,6.32,6.32,0,0,0-1.31-2.55,2.76,2.76,0,0,0-2.71-1,8.11,8.11,0,0,0-4.74,2.53,12,12,0,0,0-2.64,4.66,14.5,14.5,0,0,0-.57,5.47A12.61,12.61,0,0,0,323.27,78a9,9,0,0,0,3.79,3.64,8.36,8.36,0,0,0,3.9.89,12.93,12.93,0,0,0,2.13-.19A20.08,20.08,0,0,0,337.81,81a23.06,23.06,0,0,0,6.73-4.09,30.33,30.33,0,0,0,4.54-5,28.93,28.93,0,0,0,2.78-4.69,29.25,29.25,0,0,0,1.28-3.14,3.11,3.11,0,0,0,.12-2.41A1.21,1.21,0,0,0,352.48,61Zm-66.22,5.29c-.53,3.56-1.13,7.3-1.79,11.07l-.31,1.35a18.17,18.17,0,0,1-3.12,4,5.56,5.56,0,0,1-3.13,1.65c-1.73.23-2.92-.83-3.65-3.27-.77-2.6-.72-6,.17-10a31.75,31.75,0,0,1,1.74-5.78,25.71,25.71,0,0,1,2.56-4.83,17.38,17.38,0,0,1,3-3.41,6.25,6.25,0,0,1,2.86-1.5h.26a3.22,3.22,0,0,1,2.86,1.91C287.27,59.86,286.8,62.75,286.27,66.34Z"/><path class="cls-1" d="M364.91,7.63c-2.3-1-11.86,16.62-12.44,18.37C357.7,23.9,370.45,10.09,364.91,7.63Z"/><path class="cls-1" d="M325.21,2.19c-2.31,1,5.51,19.4,6.53,21C333.47,18,330.79-.22,325.21,2.19Z"/><path class="cls-1" d="M386.59,37.45c-.93-2.25-20.6,4.28-22.29,5.16C369.62,44.52,388.83,42.87,386.59,37.45Z"/></svg>